# Cone
# Auto-generated preset for Jyamiti Math Pad's Asset Library
mtllib cone.mtl
usemtl coneMaterial

v 1.0000 -1.0000 0.0000
v 0.9239 -1.0000 0.3827
v 0.7071 -1.0000 0.7071
v 0.3827 -1.0000 0.9239
v 0.0000 -1.0000 1.0000
v -0.3827 -1.0000 0.9239
v -0.7071 -1.0000 0.7071
v -0.9239 -1.0000 0.3827
v -1.0000 -1.0000 0.0000
v -0.9239 -1.0000 -0.3827
v -0.7071 -1.0000 -0.7071
v -0.3827 -1.0000 -0.9239
v -0.0000 -1.0000 -1.0000
v 0.3827 -1.0000 -0.9239
v 0.7071 -1.0000 -0.7071
v 0.9239 -1.0000 -0.3827
v 0.0000 1.0000 0.0000
v 0.0000 -1.0000 0.0000

f 1 2 17
f 18 2 1
f 2 3 17
f 18 3 2
f 3 4 17
f 18 4 3
f 4 5 17
f 18 5 4
f 5 6 17
f 18 6 5
f 6 7 17
f 18 7 6
f 7 8 17
f 18 8 7
f 8 9 17
f 18 9 8
f 9 10 17
f 18 10 9
f 10 11 17
f 18 11 10
f 11 12 17
f 18 12 11
f 12 13 17
f 18 13 12
f 13 14 17
f 18 14 13
f 14 15 17
f 18 15 14
f 15 16 17
f 18 16 15
f 16 1 17
f 18 1 16
