# Cylinder
# Auto-generated preset for Jyamiti Math Pad's Asset Library
mtllib cylinder.mtl
usemtl cylinderMaterial

v 1.0000 -1.0000 0.0000
v 0.9914 -1.0000 0.1305
v 0.9659 -1.0000 0.2588
v 0.9239 -1.0000 0.3827
v 0.8660 -1.0000 0.5000
v 0.7934 -1.0000 0.6088
v 0.7071 -1.0000 0.7071
v 0.6088 -1.0000 0.7934
v 0.5000 -1.0000 0.8660
v 0.3827 -1.0000 0.9239
v 0.2588 -1.0000 0.9659
v 0.1305 -1.0000 0.9914
v 0.0000 -1.0000 1.0000
v -0.1305 -1.0000 0.9914
v -0.2588 -1.0000 0.9659
v -0.3827 -1.0000 0.9239
v -0.5000 -1.0000 0.8660
v -0.6088 -1.0000 0.7934
v -0.7071 -1.0000 0.7071
v -0.7934 -1.0000 0.6088
v -0.8660 -1.0000 0.5000
v -0.9239 -1.0000 0.3827
v -0.9659 -1.0000 0.2588
v -0.9914 -1.0000 0.1305
v -1.0000 -1.0000 0.0000
v -0.9914 -1.0000 -0.1305
v -0.9659 -1.0000 -0.2588
v -0.9239 -1.0000 -0.3827
v -0.8660 -1.0000 -0.5000
v -0.7934 -1.0000 -0.6088
v -0.7071 -1.0000 -0.7071
v -0.6088 -1.0000 -0.7934
v -0.5000 -1.0000 -0.8660
v -0.3827 -1.0000 -0.9239
v -0.2588 -1.0000 -0.9659
v -0.1305 -1.0000 -0.9914
v -0.0000 -1.0000 -1.0000
v 0.1305 -1.0000 -0.9914
v 0.2588 -1.0000 -0.9659
v 0.3827 -1.0000 -0.9239
v 0.5000 -1.0000 -0.8660
v 0.6088 -1.0000 -0.7934
v 0.7071 -1.0000 -0.7071
v 0.7934 -1.0000 -0.6088
v 0.8660 -1.0000 -0.5000
v 0.9239 -1.0000 -0.3827
v 0.9659 -1.0000 -0.2588
v 0.9914 -1.0000 -0.1305
v 1.0000 1.0000 0.0000
v 0.9914 1.0000 0.1305
v 0.9659 1.0000 0.2588
v 0.9239 1.0000 0.3827
v 0.8660 1.0000 0.5000
v 0.7934 1.0000 0.6088
v 0.7071 1.0000 0.7071
v 0.6088 1.0000 0.7934
v 0.5000 1.0000 0.8660
v 0.3827 1.0000 0.9239
v 0.2588 1.0000 0.9659
v 0.1305 1.0000 0.9914
v 0.0000 1.0000 1.0000
v -0.1305 1.0000 0.9914
v -0.2588 1.0000 0.9659
v -0.3827 1.0000 0.9239
v -0.5000 1.0000 0.8660
v -0.6088 1.0000 0.7934
v -0.7071 1.0000 0.7071
v -0.7934 1.0000 0.6088
v -0.8660 1.0000 0.5000
v -0.9239 1.0000 0.3827
v -0.9659 1.0000 0.2588
v -0.9914 1.0000 0.1305
v -1.0000 1.0000 0.0000
v -0.9914 1.0000 -0.1305
v -0.9659 1.0000 -0.2588
v -0.9239 1.0000 -0.3827
v -0.8660 1.0000 -0.5000
v -0.7934 1.0000 -0.6088
v -0.7071 1.0000 -0.7071
v -0.6088 1.0000 -0.7934
v -0.5000 1.0000 -0.8660
v -0.3827 1.0000 -0.9239
v -0.2588 1.0000 -0.9659
v -0.1305 1.0000 -0.9914
v -0.0000 1.0000 -1.0000
v 0.1305 1.0000 -0.9914
v 0.2588 1.0000 -0.9659
v 0.3827 1.0000 -0.9239
v 0.5000 1.0000 -0.8660
v 0.6088 1.0000 -0.7934
v 0.7071 1.0000 -0.7071
v 0.7934 1.0000 -0.6088
v 0.8660 1.0000 -0.5000
v 0.9239 1.0000 -0.3827
v 0.9659 1.0000 -0.2588
v 0.9914 1.0000 -0.1305
v 0.0000 -1.0000 0.0000
v 0.0000 1.0000 0.0000

f 1 2 50 49
f 97 2 1
f 98 49 50
f 2 3 51 50
f 97 3 2
f 98 50 51
f 3 4 52 51
f 97 4 3
f 98 51 52
f 4 5 53 52
f 97 5 4
f 98 52 53
f 5 6 54 53
f 97 6 5
f 98 53 54
f 6 7 55 54
f 97 7 6
f 98 54 55
f 7 8 56 55
f 97 8 7
f 98 55 56
f 8 9 57 56
f 97 9 8
f 98 56 57
f 9 10 58 57
f 97 10 9
f 98 57 58
f 10 11 59 58
f 97 11 10
f 98 58 59
f 11 12 60 59
f 97 12 11
f 98 59 60
f 12 13 61 60
f 97 13 12
f 98 60 61
f 13 14 62 61
f 97 14 13
f 98 61 62
f 14 15 63 62
f 97 15 14
f 98 62 63
f 15 16 64 63
f 97 16 15
f 98 63 64
f 16 17 65 64
f 97 17 16
f 98 64 65
f 17 18 66 65
f 97 18 17
f 98 65 66
f 18 19 67 66
f 97 19 18
f 98 66 67
f 19 20 68 67
f 97 20 19
f 98 67 68
f 20 21 69 68
f 97 21 20
f 98 68 69
f 21 22 70 69
f 97 22 21
f 98 69 70
f 22 23 71 70
f 97 23 22
f 98 70 71
f 23 24 72 71
f 97 24 23
f 98 71 72
f 24 25 73 72
f 97 25 24
f 98 72 73
f 25 26 74 73
f 97 26 25
f 98 73 74
f 26 27 75 74
f 97 27 26
f 98 74 75
f 27 28 76 75
f 97 28 27
f 98 75 76
f 28 29 77 76
f 97 29 28
f 98 76 77
f 29 30 78 77
f 97 30 29
f 98 77 78
f 30 31 79 78
f 97 31 30
f 98 78 79
f 31 32 80 79
f 97 32 31
f 98 79 80
f 32 33 81 80
f 97 33 32
f 98 80 81
f 33 34 82 81
f 97 34 33
f 98 81 82
f 34 35 83 82
f 97 35 34
f 98 82 83
f 35 36 84 83
f 97 36 35
f 98 83 84
f 36 37 85 84
f 97 37 36
f 98 84 85
f 37 38 86 85
f 97 38 37
f 98 85 86
f 38 39 87 86
f 97 39 38
f 98 86 87
f 39 40 88 87
f 97 40 39
f 98 87 88
f 40 41 89 88
f 97 41 40
f 98 88 89
f 41 42 90 89
f 97 42 41
f 98 89 90
f 42 43 91 90
f 97 43 42
f 98 90 91
f 43 44 92 91
f 97 44 43
f 98 91 92
f 44 45 93 92
f 97 45 44
f 98 92 93
f 45 46 94 93
f 97 46 45
f 98 93 94
f 46 47 95 94
f 97 47 46
f 98 94 95
f 47 48 96 95
f 97 48 47
f 98 95 96
f 48 1 49 96
f 97 1 48
f 98 96 49
