# Sphere (UV, 16x10)
# Auto-generated preset for Jyamiti Math Pad's Asset Library
mtllib sphere.mtl
usemtl sphereMaterial

v 0.0000 1.0000 0.0000
v 0.0000 1.0000 0.0000
v 0.0000 1.0000 0.0000
v 0.0000 1.0000 0.0000
v 0.0000 1.0000 0.0000
v 0.0000 1.0000 0.0000
v 0.0000 1.0000 0.0000
v 0.0000 1.0000 0.0000
v 0.0000 1.0000 0.0000
v 0.0000 1.0000 0.0000
v 0.0000 1.0000 0.0000
v 0.0000 1.0000 0.0000
v 0.0000 1.0000 0.0000
v 0.0000 1.0000 0.0000
v 0.0000 1.0000 0.0000
v 0.0000 1.0000 0.0000
v 0.3090 0.9511 0.0000
v 0.2855 0.9511 0.1183
v 0.2185 0.9511 0.2185
v 0.1183 0.9511 0.2855
v 0.0000 0.9511 0.3090
v -0.1183 0.9511 0.2855
v -0.2185 0.9511 0.2185
v -0.2855 0.9511 0.1183
v -0.3090 0.9511 0.0000
v -0.2855 0.9511 -0.1183
v -0.2185 0.9511 -0.2185
v -0.1183 0.9511 -0.2855
v -0.0000 0.9511 -0.3090
v 0.1183 0.9511 -0.2855
v 0.2185 0.9511 -0.2185
v 0.2855 0.9511 -0.1183
v 0.5878 0.8090 0.0000
v 0.5430 0.8090 0.2249
v 0.4156 0.8090 0.4156
v 0.2249 0.8090 0.5430
v 0.0000 0.8090 0.5878
v -0.2249 0.8090 0.5430
v -0.4156 0.8090 0.4156
v -0.5430 0.8090 0.2249
v -0.5878 0.8090 0.0000
v -0.5430 0.8090 -0.2249
v -0.4156 0.8090 -0.4156
v -0.2249 0.8090 -0.5430
v -0.0000 0.8090 -0.5878
v 0.2249 0.8090 -0.5430
v 0.4156 0.8090 -0.4156
v 0.5430 0.8090 -0.2249
v 0.8090 0.5878 0.0000
v 0.7474 0.5878 0.3096
v 0.5721 0.5878 0.5721
v 0.3096 0.5878 0.7474
v 0.0000 0.5878 0.8090
v -0.3096 0.5878 0.7474
v -0.5721 0.5878 0.5721
v -0.7474 0.5878 0.3096
v -0.8090 0.5878 0.0000
v -0.7474 0.5878 -0.3096
v -0.5721 0.5878 -0.5721
v -0.3096 0.5878 -0.7474
v -0.0000 0.5878 -0.8090
v 0.3096 0.5878 -0.7474
v 0.5721 0.5878 -0.5721
v 0.7474 0.5878 -0.3096
v 0.9511 0.3090 0.0000
v 0.8787 0.3090 0.3640
v 0.6725 0.3090 0.6725
v 0.3640 0.3090 0.8787
v 0.0000 0.3090 0.9511
v -0.3640 0.3090 0.8787
v -0.6725 0.3090 0.6725
v -0.8787 0.3090 0.3640
v -0.9511 0.3090 0.0000
v -0.8787 0.3090 -0.3640
v -0.6725 0.3090 -0.6725
v -0.3640 0.3090 -0.8787
v -0.0000 0.3090 -0.9511
v 0.3640 0.3090 -0.8787
v 0.6725 0.3090 -0.6725
v 0.8787 0.3090 -0.3640
v 1.0000 0.0000 0.0000
v 0.9239 0.0000 0.3827
v 0.7071 0.0000 0.7071
v 0.3827 0.0000 0.9239
v 0.0000 0.0000 1.0000
v -0.3827 0.0000 0.9239
v -0.7071 0.0000 0.7071
v -0.9239 0.0000 0.3827
v -1.0000 0.0000 0.0000
v -0.9239 0.0000 -0.3827
v -0.7071 0.0000 -0.7071
v -0.3827 0.0000 -0.9239
v -0.0000 0.0000 -1.0000
v 0.3827 0.0000 -0.9239
v 0.7071 0.0000 -0.7071
v 0.9239 0.0000 -0.3827
v 0.9511 -0.3090 0.0000
v 0.8787 -0.3090 0.3640
v 0.6725 -0.3090 0.6725
v 0.3640 -0.3090 0.8787
v 0.0000 -0.3090 0.9511
v -0.3640 -0.3090 0.8787
v -0.6725 -0.3090 0.6725
v -0.8787 -0.3090 0.3640
v -0.9511 -0.3090 0.0000
v -0.8787 -0.3090 -0.3640
v -0.6725 -0.3090 -0.6725
v -0.3640 -0.3090 -0.8787
v -0.0000 -0.3090 -0.9511
v 0.3640 -0.3090 -0.8787
v 0.6725 -0.3090 -0.6725
v 0.8787 -0.3090 -0.3640
v 0.8090 -0.5878 0.0000
v 0.7474 -0.5878 0.3096
v 0.5721 -0.5878 0.5721
v 0.3096 -0.5878 0.7474
v 0.0000 -0.5878 0.8090
v -0.3096 -0.5878 0.7474
v -0.5721 -0.5878 0.5721
v -0.7474 -0.5878 0.3096
v -0.8090 -0.5878 0.0000
v -0.7474 -0.5878 -0.3096
v -0.5721 -0.5878 -0.5721
v -0.3096 -0.5878 -0.7474
v -0.0000 -0.5878 -0.8090
v 0.3096 -0.5878 -0.7474
v 0.5721 -0.5878 -0.5721
v 0.7474 -0.5878 -0.3096
v 0.5878 -0.8090 0.0000
v 0.5430 -0.8090 0.2249
v 0.4156 -0.8090 0.4156
v 0.2249 -0.8090 0.5430
v 0.0000 -0.8090 0.5878
v -0.2249 -0.8090 0.5430
v -0.4156 -0.8090 0.4156
v -0.5430 -0.8090 0.2249
v -0.5878 -0.8090 0.0000
v -0.5430 -0.8090 -0.2249
v -0.4156 -0.8090 -0.4156
v -0.2249 -0.8090 -0.5430
v -0.0000 -0.8090 -0.5878
v 0.2249 -0.8090 -0.5430
v 0.4156 -0.8090 -0.4156
v 0.5430 -0.8090 -0.2249
v 0.3090 -0.9511 0.0000
v 0.2855 -0.9511 0.1183
v 0.2185 -0.9511 0.2185
v 0.1183 -0.9511 0.2855
v 0.0000 -0.9511 0.3090
v -0.1183 -0.9511 0.2855
v -0.2185 -0.9511 0.2185
v -0.2855 -0.9511 0.1183
v -0.3090 -0.9511 0.0000
v -0.2855 -0.9511 -0.1183
v -0.2185 -0.9511 -0.2185
v -0.1183 -0.9511 -0.2855
v -0.0000 -0.9511 -0.3090
v 0.1183 -0.9511 -0.2855
v 0.2185 -0.9511 -0.2185
v 0.2855 -0.9511 -0.1183
v 0.0000 -1.0000 0.0000
v 0.0000 -1.0000 0.0000
v 0.0000 -1.0000 0.0000
v 0.0000 -1.0000 0.0000
v 0.0000 -1.0000 0.0000
v -0.0000 -1.0000 0.0000
v -0.0000 -1.0000 0.0000
v -0.0000 -1.0000 0.0000
v -0.0000 -1.0000 0.0000
v -0.0000 -1.0000 -0.0000
v -0.0000 -1.0000 -0.0000
v -0.0000 -1.0000 -0.0000
v -0.0000 -1.0000 -0.0000
v 0.0000 -1.0000 -0.0000
v 0.0000 -1.0000 -0.0000
v 0.0000 -1.0000 -0.0000

f 1 18 17
f 2 19 18
f 3 20 19
f 4 21 20
f 5 22 21
f 6 23 22
f 7 24 23
f 8 25 24
f 9 26 25
f 10 27 26
f 11 28 27
f 12 29 28
f 13 30 29
f 14 31 30
f 15 32 31
f 16 17 32
f 17 18 34 33
f 18 19 35 34
f 19 20 36 35
f 20 21 37 36
f 21 22 38 37
f 22 23 39 38
f 23 24 40 39
f 24 25 41 40
f 25 26 42 41
f 26 27 43 42
f 27 28 44 43
f 28 29 45 44
f 29 30 46 45
f 30 31 47 46
f 31 32 48 47
f 32 17 33 48
f 33 34 50 49
f 34 35 51 50
f 35 36 52 51
f 36 37 53 52
f 37 38 54 53
f 38 39 55 54
f 39 40 56 55
f 40 41 57 56
f 41 42 58 57
f 42 43 59 58
f 43 44 60 59
f 44 45 61 60
f 45 46 62 61
f 46 47 63 62
f 47 48 64 63
f 48 33 49 64
f 49 50 66 65
f 50 51 67 66
f 51 52 68 67
f 52 53 69 68
f 53 54 70 69
f 54 55 71 70
f 55 56 72 71
f 56 57 73 72
f 57 58 74 73
f 58 59 75 74
f 59 60 76 75
f 60 61 77 76
f 61 62 78 77
f 62 63 79 78
f 63 64 80 79
f 64 49 65 80
f 65 66 82 81
f 66 67 83 82
f 67 68 84 83
f 68 69 85 84
f 69 70 86 85
f 70 71 87 86
f 71 72 88 87
f 72 73 89 88
f 73 74 90 89
f 74 75 91 90
f 75 76 92 91
f 76 77 93 92
f 77 78 94 93
f 78 79 95 94
f 79 80 96 95
f 80 65 81 96
f 81 82 98 97
f 82 83 99 98
f 83 84 100 99
f 84 85 101 100
f 85 86 102 101
f 86 87 103 102
f 87 88 104 103
f 88 89 105 104
f 89 90 106 105
f 90 91 107 106
f 91 92 108 107
f 92 93 109 108
f 93 94 110 109
f 94 95 111 110
f 95 96 112 111
f 96 81 97 112
f 97 98 114 113
f 98 99 115 114
f 99 100 116 115
f 100 101 117 116
f 101 102 118 117
f 102 103 119 118
f 103 104 120 119
f 104 105 121 120
f 105 106 122 121
f 106 107 123 122
f 107 108 124 123
f 108 109 125 124
f 109 110 126 125
f 110 111 127 126
f 111 112 128 127
f 112 97 113 128
f 113 114 130 129
f 114 115 131 130
f 115 116 132 131
f 116 117 133 132
f 117 118 134 133
f 118 119 135 134
f 119 120 136 135
f 120 121 137 136
f 121 122 138 137
f 122 123 139 138
f 123 124 140 139
f 124 125 141 140
f 125 126 142 141
f 126 127 143 142
f 127 128 144 143
f 128 113 129 144
f 129 130 146 145
f 130 131 147 146
f 131 132 148 147
f 132 133 149 148
f 133 134 150 149
f 134 135 151 150
f 135 136 152 151
f 136 137 153 152
f 137 138 154 153
f 138 139 155 154
f 139 140 156 155
f 140 141 157 156
f 141 142 158 157
f 142 143 159 158
f 143 144 160 159
f 144 129 145 160
f 145 146 161
f 146 147 162
f 147 148 163
f 148 149 164
f 149 150 165
f 150 151 166
f 151 152 167
f 152 153 168
f 153 154 169
f 154 155 170
f 155 156 171
f 156 157 172
f 157 158 173
f 158 159 174
f 159 160 175
f 160 145 176
